<svg width="132" height="93" viewBox="0 0 132 93" fill="none" xmlns="http://www.w3.org/2000/svg">
<path d="M3.03413 35V10.4131H5.89388V21.2941H20.646V10.4131H23.5058V35H20.646V23.7702H5.89388V35H3.03413ZM36.819 35.3139C34.1453 35.3139 32.0295 34.535 30.4718 32.9772C28.914 31.3962 28.1351 29.2572 28.1351 26.5602C28.1351 24.8165 28.4839 23.282 29.1814 21.9567C29.8789 20.6082 30.8321 19.5736 32.0411 18.8529C33.2734 18.1089 34.6916 17.7369 36.2959 17.7369C38.5976 17.7369 40.3995 18.4809 41.7015 19.9689C43.0035 21.4336 43.6545 23.4564 43.6545 26.0371V27.1182H30.8903C30.9833 29.048 31.5413 30.5244 32.5643 31.5474C33.5873 32.5471 35.0055 33.047 36.819 33.047C37.842 33.047 38.8185 32.8959 39.7485 32.5936C40.6785 32.2681 41.562 31.745 42.399 31.0242L43.3755 33.0121C42.6083 33.7329 41.6318 34.3025 40.446 34.721C39.2603 35.1163 38.0513 35.3139 36.819 35.3139ZM36.3656 19.8294C34.7614 19.8294 33.4943 20.3292 32.5643 21.329C31.6343 22.3287 31.0879 23.6424 30.9251 25.2699H41.2133C41.1435 23.5494 40.6901 22.2125 39.8531 21.2592C39.0394 20.306 37.8769 19.8294 36.3656 19.8294ZM53.0787 35.3139C51.9162 35.3139 50.8699 35.093 49.9399 34.6512C49.0332 34.1862 48.3124 33.5585 47.7777 32.768C47.2429 31.9775 46.9755 31.094 46.9755 30.1175C46.9755 28.8852 47.2894 27.9087 47.9172 27.188C48.5682 26.4672 49.626 25.9557 51.0908 25.6535C52.5788 25.328 54.6015 25.1652 57.159 25.1652H58.275V24.0841C58.275 22.6426 57.9728 21.608 57.3683 20.9802C56.787 20.3292 55.8454 20.0037 54.5434 20.0037C53.5204 20.0037 52.5323 20.1549 51.579 20.4571C50.6258 20.7361 49.6493 21.2011 48.6495 21.8521L47.673 19.7945C48.5565 19.1667 49.626 18.6669 50.8815 18.2949C52.1603 17.9229 53.3809 17.7369 54.5434 17.7369C56.7289 17.7369 58.3448 18.2716 59.391 19.3411C60.4605 20.4106 60.9953 22.073 60.9953 24.3282V35H58.3448V32.0705C57.903 33.0702 57.2172 33.8607 56.2872 34.442C55.3804 35.0233 54.3109 35.3139 53.0787 35.3139ZM53.532 33.1865C54.927 33.1865 56.0663 32.7099 56.9498 31.7566C57.8333 30.7801 58.275 29.5479 58.275 28.0599V27.0136H57.1939C55.3107 27.0136 53.8227 27.1066 52.7299 27.2926C51.6604 27.4554 50.9048 27.7576 50.463 28.1994C50.0445 28.6179 49.8353 29.1991 49.8353 29.9431C49.8353 30.8964 50.1608 31.6752 50.8118 32.2797C51.486 32.8842 52.3928 33.1865 53.532 33.1865ZM71.4324 35.3139C69.7119 35.3139 68.4099 34.814 67.5264 33.8142C66.6662 32.7912 66.2361 31.3149 66.2361 29.3851V10.4131H69.0609V29.1759C69.0609 31.6636 70.0491 32.9075 72.0253 32.9075C72.6066 32.9075 73.1297 32.8377 73.5947 32.6983L73.5249 35.0698C72.8042 35.2325 72.1067 35.3139 71.4324 35.3139ZM83.0496 35.3139C81.0501 35.3139 79.5505 34.7907 78.5508 33.7445C77.551 32.675 77.0511 31.1405 77.0511 29.141V20.2479H73.738V18.0507H77.0511V12.8544H79.876V18.0507H85.2468V20.2479H79.876V28.862C79.876 30.1872 80.155 31.1986 80.713 31.8961C81.271 32.5704 82.1778 32.9075 83.4333 32.9075C83.8053 32.9075 84.1773 32.861 84.5493 32.768C84.9213 32.675 85.2584 32.582 85.5606 32.489L86.0489 34.6512C85.7466 34.814 85.3049 34.9651 84.7236 35.1046C84.1424 35.2441 83.5844 35.3139 83.0496 35.3139ZM88.4416 35V10.4131H91.2665V20.8407C91.8245 19.8177 92.6034 19.0505 93.6031 18.539C94.6261 18.0042 95.7654 17.7369 97.0209 17.7369C101.043 17.7369 103.054 19.9689 103.054 24.4329V35H100.229V24.6072C100.229 23.0262 99.9155 21.8754 99.2878 21.1546C98.6833 20.4106 97.7068 20.0386 96.3583 20.0386C94.8005 20.0386 93.5566 20.5269 92.6266 21.5034C91.7199 22.4566 91.2665 23.7354 91.2665 25.3396V35H88.4416ZM110.046 41.2775L112.941 34.721L105.791 18.0507H108.86L114.475 31.7915L120.125 18.0507H123.089L113.01 41.2775H110.046ZM0.662625 83L11.5088 58.4131H13.95L24.7961 83H21.8318L19.1115 76.7225H6.31238L3.627 83H0.662625ZM12.6945 61.7611L7.35863 74.3161H18.1001L12.7643 61.7611H12.6945ZM35.3853 89.5914C33.9206 89.5914 32.5372 89.3938 31.2352 88.9985C29.9564 88.6265 28.8172 88.0569 27.8174 87.2896L28.7591 85.232C29.8053 85.976 30.8399 86.5108 31.8629 86.8363C32.9092 87.1618 34.0368 87.3245 35.2458 87.3245C38.5938 87.3245 40.2678 85.604 40.2678 82.163V79.1637C39.7796 80.2332 39.0123 81.0819 37.9661 81.7096C36.9431 82.3141 35.7689 82.6164 34.4437 82.6164C32.8859 82.6164 31.5374 82.256 30.3982 81.5352C29.2589 80.8145 28.3754 79.8264 27.7477 78.5709C27.1432 77.2921 26.8409 75.8157 26.8409 74.1417C26.8409 72.4677 27.1432 71.003 27.7477 69.7475C28.3754 68.4687 29.2589 67.4806 30.3982 66.7831C31.5374 66.0856 32.8859 65.7369 34.4437 65.7369C35.7689 65.7369 36.9431 66.0391 37.9661 66.6436C39.0123 67.2481 39.7796 68.0735 40.2678 69.1197V66.0507H43.0229V81.7794C43.0229 84.3834 42.3719 86.3364 41.0699 87.6384C39.7912 88.9404 37.8963 89.5914 35.3853 89.5914ZM34.9668 80.3146C36.5943 80.3146 37.8847 79.7566 38.8379 78.6406C39.7912 77.5246 40.2678 76.025 40.2678 74.1417C40.2678 72.2585 39.7912 70.7705 38.8379 69.6777C37.8847 68.5617 36.5943 68.0037 34.9668 68.0037C33.3626 68.0037 32.0838 68.5617 31.1306 69.6777C30.1773 70.7705 29.7007 72.2585 29.7007 74.1417C29.7007 76.025 30.1773 77.5246 31.1306 78.6406C32.0838 79.7566 33.3626 80.3146 34.9668 80.3146ZM47.973 61.8309V58.6572H51.4605V61.8309H47.973ZM48.3218 83V66.0507H51.1466V83H48.3218ZM56.4275 83V66.0507H59.1826V68.9454C59.7406 67.8759 60.5311 67.0737 61.5541 66.539C62.5771 66.0042 63.728 65.7369 65.0067 65.7369C69.029 65.7369 71.0401 67.9689 71.0401 72.4329V83H68.2152V72.6072C68.2152 71.0262 67.9014 69.8754 67.2736 69.1546C66.6691 68.4106 65.6926 68.0386 64.3441 68.0386C62.7864 68.0386 61.5425 68.5269 60.6125 69.5034C59.7057 70.4566 59.2524 71.7354 59.2524 73.3396V83H56.4275ZM83.7471 89.5914C82.2824 89.5914 80.899 89.3938 79.597 88.9985C78.3183 88.6265 77.179 88.0569 76.1793 87.2896L77.1209 85.232C78.1671 85.976 79.2018 86.5108 80.2248 86.8363C81.271 87.1618 82.3986 87.3245 83.6076 87.3245C86.9556 87.3245 88.6296 85.604 88.6296 82.163V79.1637C88.1414 80.2332 87.3741 81.0819 86.3279 81.7096C85.3049 82.3141 84.1308 82.6164 82.8055 82.6164C81.2478 82.6164 79.8993 82.256 78.76 81.5352C77.6208 80.8145 76.7373 79.8264 76.1095 78.5709C75.505 77.2921 75.2028 75.8157 75.2028 74.1417C75.2028 72.4677 75.505 71.003 76.1095 69.7475C76.7373 68.4687 77.6208 67.4806 78.76 66.7831C79.8993 66.0856 81.2478 65.7369 82.8055 65.7369C84.1308 65.7369 85.3049 66.0391 86.3279 66.6436C87.3741 67.2481 88.1414 68.0735 88.6296 69.1197V66.0507H91.3848V81.7794C91.3848 84.3834 90.7338 86.3364 89.4318 87.6384C88.153 88.9404 86.2581 89.5914 83.7471 89.5914ZM83.3286 80.3146C84.9561 80.3146 86.2465 79.7566 87.1998 78.6406C88.153 77.5246 88.6296 76.025 88.6296 74.1417C88.6296 72.2585 88.153 70.7705 87.1998 69.6777C86.2465 68.5617 84.9561 68.0037 83.3286 68.0037C81.7244 68.0037 80.4456 68.5617 79.4924 69.6777C78.5391 70.7705 78.0625 72.2585 78.0625 74.1417C78.0625 76.025 78.5391 77.5246 79.4924 78.6406C80.4456 79.7566 81.7244 80.3146 83.3286 80.3146Z" fill="#4F65D4"/>
<path d="M102.371 58.682C103.623 56.5126 105.719 54.9487 108.198 54.3344C110.677 53.7201 113.335 54.1057 115.588 55.4064C117.841 56.7071 119.504 58.8164 120.211 61.2701C120.918 63.7239 120.612 66.3212 119.36 68.4906C118.107 70.6601 116.011 72.2239 113.532 72.8382C111.053 73.4525 108.395 73.0669 106.142 71.7662C103.89 70.4655 102.226 68.3563 101.519 65.9025C100.812 63.4488 101.118 60.8515 102.371 58.682ZM122.191 70.1254C123.145 68.4799 123.697 66.63 123.804 64.7167C123.911 62.8033 123.57 60.877 122.808 59.0844L125.973 50.4961L114.647 43.957L108.792 50.9923C106.859 51.2287 105.02 51.897 103.417 52.9463C101.813 53.9956 100.487 55.3982 99.5391 57.0473C97.5398 60.5101 97.4378 64.5775 98.9219 68.0883L95.7568 76.6766L107.083 83.2156L112.938 76.1803C114.871 75.9422 116.708 75.2732 118.312 74.2241C119.915 73.175 121.242 71.7733 122.191 70.1254Z" fill="#4F65D4"/>
<path fill-rule="evenodd" clip-rule="evenodd" d="M113.547 59.6318C118.807 58.1443 123.633 68.8477 107.669 69.812C100.522 55.506 112.205 54.3324 113.547 59.6318Z" fill="#4F65D4"/>
</svg>
