<svg width="1298" height="418" viewBox="0 0 1298 418" fill="none" xmlns="http://www.w3.org/2000/svg">
<g opacity="0.06" filter="url(#filter0_f)">
<rect x="114.579" y="114.348" width="1068.84" height="189.218" rx="10" fill="#0D1025"/>
</g>
<rect x="79" y="61.5493" width="1140" height="200" rx="10" fill="white"/>
<path d="M459.5 98.7627V224.336" stroke="#EEEFF2" stroke-width="2" stroke-linecap="round"/>
<path d="M840.5 98.7627V224.336" stroke="#EEEFF2" stroke-width="2" stroke-linecap="round"/>
<path d="M623.24 186.049V171.949H628.82C630.34 171.949 631.5 172.316 632.3 173.049C633.113 173.783 633.52 174.829 633.52 176.189C633.52 177.536 633.113 178.583 632.3 179.329C631.5 180.063 630.34 180.429 628.82 180.429H624.88V186.049H623.24ZM624.88 179.049H628.62C630.807 179.049 631.9 178.096 631.9 176.189C631.9 174.269 630.807 173.309 628.62 173.309H624.88V179.049ZM638.248 186.229C637.581 186.229 636.981 186.103 636.448 185.849C635.928 185.583 635.515 185.223 635.208 184.769C634.901 184.316 634.748 183.809 634.748 183.249C634.748 182.543 634.928 181.983 635.288 181.569C635.661 181.156 636.268 180.863 637.108 180.689C637.961 180.503 639.121 180.409 640.588 180.409H641.228V179.789C641.228 178.963 641.055 178.369 640.708 178.009C640.375 177.636 639.835 177.449 639.088 177.449C638.501 177.449 637.935 177.536 637.388 177.709C636.841 177.869 636.281 178.136 635.708 178.509L635.148 177.329C635.655 176.969 636.268 176.683 636.988 176.469C637.721 176.256 638.421 176.149 639.088 176.149C640.341 176.149 641.268 176.456 641.868 177.069C642.481 177.683 642.788 178.636 642.788 179.929V186.049H641.268V184.369C641.015 184.943 640.621 185.396 640.088 185.729C639.568 186.063 638.955 186.229 638.248 186.229ZM638.508 185.009C639.308 185.009 639.961 184.736 640.468 184.189C640.975 183.629 641.228 182.923 641.228 182.069V181.469H640.608C639.528 181.469 638.675 181.523 638.048 181.629C637.435 181.723 637.001 181.896 636.748 182.149C636.508 182.389 636.388 182.723 636.388 183.149C636.388 183.696 636.575 184.143 636.948 184.489C637.335 184.836 637.855 185.009 638.508 185.009ZM645.793 186.049V176.329H647.373V178.069C647.893 176.896 648.96 176.249 650.573 176.129L651.153 176.069L651.273 177.469L650.253 177.589C649.333 177.669 648.633 177.963 648.153 178.469C647.673 178.963 647.433 179.643 647.433 180.509V186.049H645.793ZM657.389 186.229C656.242 186.229 655.382 185.929 654.809 185.329C654.235 184.716 653.949 183.836 653.949 182.689V177.589H652.049V176.329H653.949V173.349H655.569V176.329H658.649V177.589H655.569V182.529C655.569 183.289 655.729 183.869 656.049 184.269C656.369 184.656 656.889 184.849 657.609 184.849C657.822 184.849 658.035 184.823 658.249 184.769C658.462 184.716 658.655 184.663 658.829 184.609L659.109 185.849C658.935 185.943 658.682 186.029 658.349 186.109C658.015 186.189 657.695 186.229 657.389 186.229ZM660.481 186.049V176.329H662.061V177.989C662.381 177.376 662.834 176.916 663.421 176.609C664.008 176.303 664.668 176.149 665.401 176.149C667.708 176.149 668.861 177.429 668.861 179.989V186.049H667.241V180.089C667.241 179.183 667.061 178.523 666.701 178.109C666.354 177.683 665.794 177.469 665.021 177.469C664.128 177.469 663.414 177.749 662.881 178.309C662.361 178.856 662.101 179.589 662.101 180.509V186.049H660.481ZM676.228 186.229C674.695 186.229 673.481 185.783 672.588 184.889C671.695 183.983 671.248 182.756 671.248 181.209C671.248 180.209 671.448 179.329 671.848 178.569C672.248 177.796 672.795 177.203 673.488 176.789C674.195 176.363 675.008 176.149 675.928 176.149C677.248 176.149 678.281 176.576 679.028 177.429C679.775 178.269 680.148 179.429 680.148 180.909V181.529H672.828C672.881 182.636 673.201 183.483 673.788 184.069C674.375 184.643 675.188 184.929 676.228 184.929C676.815 184.929 677.375 184.843 677.908 184.669C678.441 184.483 678.948 184.183 679.428 183.769L679.988 184.909C679.548 185.323 678.988 185.649 678.308 185.889C677.628 186.116 676.935 186.229 676.228 186.229ZM675.968 177.349C675.048 177.349 674.321 177.636 673.788 178.209C673.255 178.783 672.941 179.536 672.848 180.469H678.748C678.708 179.483 678.448 178.716 677.968 178.169C677.501 177.623 676.835 177.349 675.968 177.349ZM682.493 186.049V176.329H684.073V178.069C684.593 176.896 685.659 176.249 687.273 176.129L687.853 176.069L687.973 177.469L686.953 177.589C686.033 177.669 685.333 177.963 684.853 178.469C684.373 178.963 684.133 179.643 684.133 180.509V186.049H682.493ZM695.017 186.049V171.949H696.657V178.189H705.117V171.949H706.757V186.049H705.117V179.609H696.657V186.049H695.017ZM714.052 186.229C713.106 186.229 712.286 186.023 711.592 185.609C710.899 185.196 710.359 184.616 709.972 183.869C709.599 183.109 709.412 182.216 709.412 181.189C709.412 180.163 709.599 179.276 709.972 178.529C710.359 177.769 710.899 177.183 711.592 176.769C712.286 176.356 713.106 176.149 714.052 176.149C714.986 176.149 715.799 176.356 716.492 176.769C717.199 177.183 717.739 177.769 718.112 178.529C718.499 179.276 718.692 180.163 718.692 181.189C718.692 182.216 718.499 183.109 718.112 183.869C717.739 184.616 717.199 185.196 716.492 185.609C715.799 186.023 714.986 186.229 714.052 186.229ZM714.052 184.929C714.959 184.929 715.686 184.609 716.232 183.969C716.779 183.316 717.052 182.389 717.052 181.189C717.052 179.976 716.779 179.049 716.232 178.409C715.686 177.769 714.959 177.449 714.052 177.449C713.132 177.449 712.399 177.769 711.852 178.409C711.319 179.049 711.052 179.976 711.052 181.189C711.052 182.389 711.319 183.316 711.852 183.969C712.399 184.609 713.132 184.929 714.052 184.929ZM724.405 186.229C723.645 186.229 722.925 186.123 722.245 185.909C721.565 185.696 721.005 185.396 720.565 185.009L721.085 183.869C721.565 184.256 722.092 184.543 722.665 184.729C723.252 184.903 723.845 184.989 724.445 184.989C725.205 184.989 725.779 184.849 726.165 184.569C726.552 184.289 726.745 183.909 726.745 183.429C726.745 183.056 726.619 182.763 726.365 182.549C726.112 182.323 725.712 182.149 725.165 182.029L723.345 181.629C721.692 181.269 720.865 180.416 720.865 179.069C720.865 178.189 721.212 177.483 721.905 176.949C722.612 176.416 723.532 176.149 724.665 176.149C725.332 176.149 725.965 176.256 726.565 176.469C727.179 176.669 727.685 176.969 728.085 177.369L727.545 178.509C727.159 178.149 726.705 177.876 726.185 177.689C725.679 177.489 725.172 177.389 724.665 177.389C723.919 177.389 723.352 177.536 722.965 177.829C722.579 178.123 722.385 178.509 722.385 178.989C722.385 179.736 722.879 180.216 723.865 180.429L725.685 180.809C726.539 180.996 727.185 181.296 727.625 181.709C728.065 182.109 728.285 182.656 728.285 183.349C728.285 184.243 727.932 184.949 727.225 185.469C726.519 185.976 725.579 186.229 724.405 186.229ZM730.754 189.649V176.329H732.334V178.069C732.628 177.469 733.061 177.003 733.634 176.669C734.221 176.323 734.901 176.149 735.674 176.149C736.541 176.149 737.294 176.356 737.934 176.769C738.588 177.169 739.088 177.749 739.434 178.509C739.794 179.256 739.974 180.149 739.974 181.189C739.974 182.216 739.794 183.109 739.434 183.869C739.088 184.616 738.588 185.196 737.934 185.609C737.294 186.023 736.541 186.229 735.674 186.229C734.928 186.229 734.261 186.063 733.674 185.729C733.088 185.396 732.654 184.936 732.374 184.349V189.649H730.754ZM735.334 184.929C736.241 184.929 736.968 184.609 737.514 183.969C738.061 183.316 738.334 182.389 738.334 181.189C738.334 179.976 738.061 179.049 737.514 178.409C736.968 177.769 736.241 177.449 735.334 177.449C734.428 177.449 733.701 177.769 733.154 178.409C732.608 179.049 732.334 179.976 732.334 181.189C732.334 182.389 732.608 183.316 733.154 183.969C733.701 184.609 734.428 184.929 735.334 184.929ZM742.215 173.909V172.089H744.215V173.909H742.215ZM742.415 186.049V176.329H744.035V186.049H742.415ZM750.963 186.229C749.816 186.229 748.956 185.929 748.383 185.329C747.81 184.716 747.523 183.836 747.523 182.689V177.589H745.623V176.329H747.523V173.349H749.143V176.329H752.223V177.589H749.143V182.529C749.143 183.289 749.303 183.869 749.623 184.269C749.943 184.656 750.463 184.849 751.183 184.849C751.396 184.849 751.61 184.823 751.823 184.769C752.036 184.716 752.23 184.663 752.403 184.609L752.683 185.849C752.51 185.943 752.256 186.029 751.923 186.109C751.59 186.189 751.27 186.229 750.963 186.229ZM757.115 186.229C756.448 186.229 755.848 186.103 755.315 185.849C754.795 185.583 754.382 185.223 754.075 184.769C753.768 184.316 753.615 183.809 753.615 183.249C753.615 182.543 753.795 181.983 754.155 181.569C754.528 181.156 755.135 180.863 755.975 180.689C756.828 180.503 757.988 180.409 759.455 180.409H760.095V179.789C760.095 178.963 759.922 178.369 759.575 178.009C759.242 177.636 758.702 177.449 757.955 177.449C757.368 177.449 756.802 177.536 756.255 177.709C755.708 177.869 755.148 178.136 754.575 178.509L754.015 177.329C754.522 176.969 755.135 176.683 755.855 176.469C756.588 176.256 757.288 176.149 757.955 176.149C759.208 176.149 760.135 176.456 760.735 177.069C761.348 177.683 761.655 178.636 761.655 179.929V186.049H760.135V184.369C759.882 184.943 759.488 185.396 758.955 185.729C758.435 186.063 757.822 186.229 757.115 186.229ZM757.375 185.009C758.175 185.009 758.828 184.736 759.335 184.189C759.842 183.629 760.095 182.923 760.095 182.069V181.469H759.475C758.395 181.469 757.542 181.523 756.915 181.629C756.302 181.723 755.868 181.896 755.615 182.149C755.375 182.389 755.255 182.723 755.255 183.149C755.255 183.696 755.442 184.143 755.815 184.489C756.202 184.836 756.722 185.009 757.375 185.009ZM767.641 186.229C766.654 186.229 765.907 185.943 765.401 185.369C764.907 184.783 764.661 183.936 764.661 182.829V171.949H766.281V182.709C766.281 184.136 766.847 184.849 767.981 184.849C768.314 184.849 768.614 184.809 768.881 184.729L768.841 186.089C768.427 186.183 768.027 186.229 767.641 186.229ZM773.761 186.229C773.001 186.229 772.281 186.123 771.601 185.909C770.921 185.696 770.361 185.396 769.921 185.009L770.441 183.869C770.921 184.256 771.448 184.543 772.021 184.729C772.608 184.903 773.201 184.989 773.801 184.989C774.561 184.989 775.134 184.849 775.521 184.569C775.908 184.289 776.101 183.909 776.101 183.429C776.101 183.056 775.974 182.763 775.721 182.549C775.468 182.323 775.068 182.149 774.521 182.029L772.701 181.629C771.048 181.269 770.221 180.416 770.221 179.069C770.221 178.189 770.568 177.483 771.261 176.949C771.968 176.416 772.888 176.149 774.021 176.149C774.688 176.149 775.321 176.256 775.921 176.469C776.534 176.669 777.041 176.969 777.441 177.369L776.901 178.509C776.514 178.149 776.061 177.876 775.541 177.689C775.034 177.489 774.528 177.389 774.021 177.389C773.274 177.389 772.708 177.536 772.321 177.829C771.934 178.123 771.741 178.509 771.741 178.989C771.741 179.736 772.234 180.216 773.221 180.429L775.041 180.809C775.894 180.996 776.541 181.296 776.981 181.709C777.421 182.109 777.641 182.656 777.641 183.349C777.641 184.243 777.288 184.949 776.581 185.469C775.874 185.976 774.934 186.229 773.761 186.229Z" fill="#4F5665"/>
<path d="M625.85 153.049C625.7 153.049 625.575 152.999 625.475 152.899C625.375 152.783 625.325 152.649 625.325 152.499C625.325 152.383 625.358 152.274 625.425 152.174L628.95 147.349C628.733 147.399 628.492 147.424 628.225 147.424C627.192 147.358 626.217 147.074 625.3 146.574C624.383 146.074 623.642 145.391 623.075 144.524C622.508 143.658 622.225 142.666 622.225 141.549C622.225 140.449 622.5 139.424 623.05 138.474C623.6 137.524 624.408 136.758 625.475 136.174C626.558 135.591 627.858 135.299 629.375 135.299C630.908 135.299 632.225 135.566 633.325 136.099C634.442 136.633 635.283 137.366 635.85 138.299C636.417 139.216 636.7 140.241 636.7 141.374C636.7 142.291 636.508 143.124 636.125 143.874C635.758 144.624 635.208 145.508 634.475 146.524C634.442 146.558 634.308 146.741 634.075 147.074L630.075 152.549C629.842 152.883 629.542 153.049 629.175 153.049H625.85ZM629.425 144.124C630.192 144.124 630.825 143.891 631.325 143.424C631.825 142.958 632.075 142.324 632.075 141.524C632.075 140.724 631.825 140.091 631.325 139.624C630.825 139.141 630.192 138.899 629.425 138.899C628.658 138.899 628.025 139.141 627.525 139.624C627.042 140.091 626.8 140.724 626.8 141.524C626.8 142.324 627.05 142.958 627.55 143.424C628.05 143.891 628.675 144.124 629.425 144.124ZM645.991 153.299C643.691 153.283 641.949 152.674 640.766 151.474C639.582 150.258 638.941 148.666 638.841 146.699C638.807 145.799 638.791 144.999 638.791 144.299C638.791 143.583 638.807 142.758 638.841 141.824C638.907 140.574 639.207 139.466 639.741 138.499C640.291 137.516 641.091 136.741 642.141 136.174C643.191 135.591 644.474 135.299 645.991 135.299C648.241 135.316 649.974 135.924 651.191 137.124C652.407 138.324 653.066 139.891 653.166 141.824C653.199 142.758 653.216 143.583 653.216 144.299C653.216 144.999 653.199 145.799 653.166 146.699C653.049 148.666 652.399 150.258 651.216 151.474C650.032 152.674 648.291 153.283 645.991 153.299ZM645.991 149.674C646.807 149.674 647.416 149.408 647.816 148.874C648.232 148.324 648.457 147.558 648.491 146.574C648.524 146.091 648.541 145.316 648.541 144.249C648.541 143.183 648.524 142.424 648.491 141.974C648.457 141.024 648.241 140.274 647.841 139.724C647.441 139.174 646.824 138.891 645.991 138.874C645.174 138.891 644.557 139.174 644.141 139.724C643.741 140.274 643.524 141.024 643.491 141.974C643.474 142.424 643.466 143.183 643.466 144.249C643.466 145.316 643.474 146.091 643.491 146.574C643.574 148.641 644.407 149.674 645.991 149.674ZM662.983 153.299C660.683 153.283 658.941 152.674 657.758 151.474C656.574 150.258 655.933 148.666 655.833 146.699C655.799 145.799 655.783 144.999 655.783 144.299C655.783 143.583 655.799 142.758 655.833 141.824C655.899 140.574 656.199 139.466 656.733 138.499C657.283 137.516 658.083 136.741 659.133 136.174C660.183 135.591 661.466 135.299 662.983 135.299C665.233 135.316 666.966 135.924 668.183 137.124C669.399 138.324 670.058 139.891 670.158 141.824C670.191 142.758 670.208 143.583 670.208 144.299C670.208 144.999 670.191 145.799 670.158 146.699C670.041 148.666 669.391 150.258 668.208 151.474C667.024 152.674 665.283 153.283 662.983 153.299ZM662.983 149.674C663.799 149.674 664.408 149.408 664.808 148.874C665.224 148.324 665.449 147.558 665.483 146.574C665.516 146.091 665.533 145.316 665.533 144.249C665.533 143.183 665.516 142.424 665.483 141.974C665.449 141.024 665.233 140.274 664.833 139.724C664.433 139.174 663.816 138.891 662.983 138.874C662.166 138.891 661.549 139.174 661.133 139.724C660.733 140.274 660.516 141.024 660.483 141.974C660.466 142.424 660.458 143.183 660.458 144.249C660.458 145.316 660.466 146.091 660.483 146.574C660.566 148.641 661.399 149.674 662.983 149.674ZM678.075 152.224C677.908 152.224 677.758 152.166 677.625 152.049C677.508 151.916 677.45 151.766 677.45 151.599V147.024H673C672.817 147.024 672.658 146.966 672.525 146.849C672.408 146.733 672.35 146.583 672.35 146.399V144.574C672.35 144.391 672.408 144.241 672.525 144.124C672.658 143.991 672.817 143.924 673 143.924H677.45V139.499C677.45 139.316 677.508 139.166 677.625 139.049C677.758 138.933 677.908 138.874 678.075 138.874H680.125C680.308 138.874 680.458 138.933 680.575 139.049C680.692 139.166 680.75 139.316 680.75 139.499V143.924H685.175C685.358 143.924 685.508 143.991 685.625 144.124C685.742 144.241 685.8 144.391 685.8 144.574V146.399C685.8 146.583 685.742 146.733 685.625 146.849C685.508 146.966 685.358 147.024 685.175 147.024H680.75V151.599C680.75 151.766 680.692 151.916 680.575 152.049C680.458 152.166 680.308 152.224 680.125 152.224H678.075Z" fill="#0B132A"/>
<rect x="530" y="134.049" width="55" height="55" rx="27.5" fill="#4F65D4"/>
<path d="M564.5 158.549C564.5 157.63 564.319 156.72 563.967 155.871C563.615 155.021 563.1 154.25 562.45 153.6C561.8 152.95 561.028 152.434 560.179 152.082C559.33 151.73 558.419 151.549 557.5 151.549C556.581 151.549 555.67 151.73 554.821 152.082C553.972 152.434 553.2 152.95 552.55 153.6C551.9 154.25 551.385 155.021 551.033 155.871C550.681 156.72 550.5 157.63 550.5 158.549C550.5 159.936 550.91 161.226 551.605 162.314H551.597C553.957 166.009 557.5 171.549 557.5 171.549L563.403 162.314H563.396C564.116 161.191 564.5 159.884 564.5 158.549ZM557.5 161.549C556.704 161.549 555.941 161.233 555.379 160.671C554.816 160.108 554.5 159.345 554.5 158.549C554.5 157.754 554.816 156.991 555.379 156.428C555.941 155.865 556.704 155.549 557.5 155.549C558.296 155.549 559.059 155.865 559.621 156.428C560.184 156.991 560.5 157.754 560.5 158.549C560.5 159.345 560.184 160.108 559.621 160.671C559.059 161.233 558.296 161.549 557.5 161.549Z" fill="white"/>
<path d="M244.34 186.229C242.953 186.229 241.767 185.936 240.78 185.349C239.793 184.763 239.033 183.929 238.5 182.849C237.98 181.769 237.72 180.483 237.72 178.989C237.72 177.509 237.98 176.229 238.5 175.149C239.033 174.069 239.793 173.236 240.78 172.649C241.767 172.063 242.953 171.769 244.34 171.769C245.313 171.769 246.207 171.923 247.02 172.229C247.847 172.536 248.547 172.983 249.12 173.569L248.48 174.909C247.867 174.336 247.227 173.923 246.56 173.669C245.907 173.403 245.18 173.269 244.38 173.269C242.793 173.269 241.58 173.769 240.74 174.769C239.9 175.769 239.48 177.176 239.48 178.989C239.48 180.816 239.9 182.229 240.74 183.229C241.58 184.229 242.793 184.729 244.38 184.729C245.18 184.729 245.907 184.603 246.56 184.349C247.227 184.083 247.867 183.663 248.48 183.089L249.12 184.429C248.547 185.003 247.847 185.449 247.02 185.769C246.207 186.076 245.313 186.229 244.34 186.229ZM254.457 186.229C253.47 186.229 252.724 185.943 252.217 185.369C251.724 184.783 251.477 183.936 251.477 182.829V171.949H253.097V182.709C253.097 184.136 253.664 184.849 254.797 184.849C255.13 184.849 255.43 184.809 255.697 184.729L255.657 186.089C255.244 186.183 254.844 186.229 254.457 186.229ZM257.195 173.909V172.089H259.195V173.909H257.195ZM257.395 186.049V176.329H259.015V186.049H257.395ZM266.423 186.229C264.89 186.229 263.677 185.783 262.783 184.889C261.89 183.983 261.443 182.756 261.443 181.209C261.443 180.209 261.643 179.329 262.043 178.569C262.443 177.796 262.99 177.203 263.683 176.789C264.39 176.363 265.203 176.149 266.123 176.149C267.443 176.149 268.477 176.576 269.223 177.429C269.97 178.269 270.343 179.429 270.343 180.909V181.529H263.023C263.077 182.636 263.397 183.483 263.983 184.069C264.57 184.643 265.383 184.929 266.423 184.929C267.01 184.929 267.57 184.843 268.103 184.669C268.637 184.483 269.143 184.183 269.623 183.769L270.183 184.909C269.743 185.323 269.183 185.649 268.503 185.889C267.823 186.116 267.13 186.229 266.423 186.229ZM266.163 177.349C265.243 177.349 264.517 177.636 263.983 178.209C263.45 178.783 263.137 179.536 263.043 180.469H268.943C268.903 179.483 268.643 178.716 268.163 178.169C267.697 177.623 267.03 177.349 266.163 177.349ZM272.688 186.049V176.329H274.268V177.989C274.588 177.376 275.041 176.916 275.628 176.609C276.215 176.303 276.875 176.149 277.608 176.149C279.915 176.149 281.068 177.429 281.068 179.989V186.049H279.448V180.089C279.448 179.183 279.268 178.523 278.908 178.109C278.561 177.683 278.001 177.469 277.228 177.469C276.335 177.469 275.621 177.749 275.088 178.309C274.568 178.856 274.308 179.589 274.308 180.509V186.049H272.688ZM287.955 186.229C286.808 186.229 285.948 185.929 285.375 185.329C284.802 184.716 284.515 183.836 284.515 182.689V177.589H282.615V176.329H284.515V173.349H286.135V176.329H289.215V177.589H286.135V182.529C286.135 183.289 286.295 183.869 286.615 184.269C286.935 184.656 287.455 184.849 288.175 184.849C288.388 184.849 288.602 184.823 288.815 184.769C289.028 184.716 289.222 184.663 289.395 184.609L289.675 185.849C289.502 185.943 289.248 186.029 288.915 186.109C288.582 186.189 288.262 186.229 287.955 186.229ZM294.327 186.229C293.567 186.229 292.847 186.123 292.167 185.909C291.487 185.696 290.927 185.396 290.487 185.009L291.007 183.869C291.487 184.256 292.014 184.543 292.587 184.729C293.174 184.903 293.767 184.989 294.367 184.989C295.127 184.989 295.701 184.849 296.087 184.569C296.474 184.289 296.667 183.909 296.667 183.429C296.667 183.056 296.541 182.763 296.287 182.549C296.034 182.323 295.634 182.149 295.087 182.029L293.267 181.629C291.614 181.269 290.787 180.416 290.787 179.069C290.787 178.189 291.134 177.483 291.827 176.949C292.534 176.416 293.454 176.149 294.587 176.149C295.254 176.149 295.887 176.256 296.487 176.469C297.101 176.669 297.607 176.969 298.007 177.369L297.467 178.509C297.081 178.149 296.627 177.876 296.107 177.689C295.601 177.489 295.094 177.389 294.587 177.389C293.841 177.389 293.274 177.536 292.887 177.829C292.501 178.123 292.307 178.509 292.307 178.989C292.307 179.736 292.801 180.216 293.787 180.429L295.607 180.809C296.461 180.996 297.107 181.296 297.547 181.709C297.987 182.109 298.207 182.656 298.207 183.349C298.207 184.243 297.854 184.949 297.147 185.469C296.441 185.976 295.501 186.229 294.327 186.229ZM306.033 186.049V171.949H307.673V178.189H316.133V171.949H317.773V186.049H316.133V179.609H307.673V186.049H306.033ZM325.408 186.229C323.874 186.229 322.661 185.783 321.768 184.889C320.874 183.983 320.428 182.756 320.428 181.209C320.428 180.209 320.628 179.329 321.028 178.569C321.428 177.796 321.974 177.203 322.668 176.789C323.374 176.363 324.188 176.149 325.108 176.149C326.428 176.149 327.461 176.576 328.208 177.429C328.954 178.269 329.328 179.429 329.328 180.909V181.529H322.008C322.061 182.636 322.381 183.483 322.968 184.069C323.554 184.643 324.368 184.929 325.408 184.929C325.994 184.929 326.554 184.843 327.088 184.669C327.621 184.483 328.128 184.183 328.608 183.769L329.168 184.909C328.728 185.323 328.168 185.649 327.488 185.889C326.808 186.116 326.114 186.229 325.408 186.229ZM325.148 177.349C324.228 177.349 323.501 177.636 322.968 178.209C322.434 178.783 322.121 179.536 322.028 180.469H327.928C327.888 179.483 327.628 178.716 327.148 178.169C326.681 177.623 326.014 177.349 325.148 177.349ZM334.652 186.229C333.666 186.229 332.919 185.943 332.412 185.369C331.919 184.783 331.672 183.936 331.672 182.829V171.949H333.292V182.709C333.292 184.136 333.859 184.849 334.992 184.849C335.326 184.849 335.626 184.809 335.892 184.729L335.852 186.089C335.439 186.183 335.039 186.229 334.652 186.229ZM337.59 189.649V176.329H339.17V178.069C339.464 177.469 339.897 177.003 340.47 176.669C341.057 176.323 341.737 176.149 342.51 176.149C343.377 176.149 344.13 176.356 344.77 176.769C345.424 177.169 345.924 177.749 346.27 178.509C346.63 179.256 346.81 180.149 346.81 181.189C346.81 182.216 346.63 183.109 346.27 183.869C345.924 184.616 345.424 185.196 344.77 185.609C344.13 186.023 343.377 186.229 342.51 186.229C341.764 186.229 341.097 186.063 340.51 185.729C339.924 185.396 339.49 184.936 339.21 184.349V189.649H337.59ZM342.17 184.929C343.077 184.929 343.804 184.609 344.35 183.969C344.897 183.316 345.17 182.389 345.17 181.189C345.17 179.976 344.897 179.049 344.35 178.409C343.804 177.769 343.077 177.449 342.17 177.449C341.264 177.449 340.537 177.769 339.99 178.409C339.444 179.049 339.17 179.976 339.17 181.189C339.17 182.389 339.444 183.316 339.99 183.969C340.537 184.609 341.264 184.929 342.17 184.929ZM353.63 186.229C352.097 186.229 350.884 185.783 349.99 184.889C349.097 183.983 348.65 182.756 348.65 181.209C348.65 180.209 348.85 179.329 349.25 178.569C349.65 177.796 350.197 177.203 350.89 176.789C351.597 176.363 352.41 176.149 353.33 176.149C354.65 176.149 355.684 176.576 356.43 177.429C357.177 178.269 357.55 179.429 357.55 180.909V181.529H350.23C350.284 182.636 350.604 183.483 351.19 184.069C351.777 184.643 352.59 184.929 353.63 184.929C354.217 184.929 354.777 184.843 355.31 184.669C355.844 184.483 356.35 184.183 356.83 183.769L357.39 184.909C356.95 185.323 356.39 185.649 355.71 185.889C355.03 186.116 354.337 186.229 353.63 186.229ZM353.37 177.349C352.45 177.349 351.724 177.636 351.19 178.209C350.657 178.783 350.344 179.536 350.25 180.469H356.15C356.11 179.483 355.85 178.716 355.37 178.169C354.904 177.623 354.237 177.349 353.37 177.349ZM363.595 186.229C362.728 186.229 361.968 186.023 361.315 185.609C360.675 185.196 360.175 184.616 359.815 183.869C359.468 183.109 359.295 182.216 359.295 181.189C359.295 180.149 359.468 179.256 359.815 178.509C360.175 177.749 360.675 177.169 361.315 176.769C361.968 176.356 362.728 176.149 363.595 176.149C364.355 176.149 365.022 176.316 365.595 176.649C366.182 176.983 366.615 177.443 366.895 178.029V171.949H368.515V186.049H366.935V184.269C366.655 184.883 366.222 185.363 365.635 185.709C365.048 186.056 364.368 186.229 363.595 186.229ZM363.935 184.929C364.842 184.929 365.568 184.609 366.115 183.969C366.662 183.316 366.935 182.389 366.935 181.189C366.935 179.976 366.662 179.049 366.115 178.409C365.568 177.769 364.842 177.449 363.935 177.449C363.015 177.449 362.282 177.769 361.735 178.409C361.202 179.049 360.935 179.976 360.935 181.189C360.935 182.389 361.202 183.316 361.735 183.969C362.282 184.609 363.015 184.929 363.935 184.929Z" fill="#4F5665"/>
<path d="M240.025 153.049C239.875 153.049 239.75 152.999 239.65 152.899C239.55 152.783 239.5 152.649 239.5 152.499C239.5 152.416 239.517 152.341 239.55 152.274L245.325 139.324H237.85C237.667 139.324 237.508 139.266 237.375 139.149C237.258 139.016 237.2 138.858 237.2 138.674V136.174C237.2 135.991 237.258 135.841 237.375 135.724C237.508 135.608 237.667 135.549 237.85 135.549H249.525C249.725 135.549 249.883 135.608 250 135.724C250.117 135.841 250.175 135.991 250.175 136.174V138.399C250.175 138.749 250.083 139.124 249.9 139.524L244.125 152.449C243.942 152.849 243.65 153.049 243.25 153.049H240.025ZM250.715 154.924C250.582 154.924 250.465 154.866 250.365 154.749C250.265 154.649 250.223 154.524 250.24 154.374L251.015 149.474C251.048 149.241 251.14 149.041 251.29 148.874C251.44 148.708 251.648 148.624 251.915 148.624H254.84C254.973 148.624 255.082 148.674 255.165 148.774C255.265 148.858 255.315 148.966 255.315 149.099C255.315 149.216 255.298 149.308 255.265 149.374L253.39 154.224C253.29 154.441 253.173 154.608 253.04 154.724C252.907 154.858 252.715 154.924 252.465 154.924H250.715ZM264.677 153.299C262.377 153.283 260.635 152.674 259.452 151.474C258.269 150.258 257.627 148.666 257.527 146.699C257.494 145.799 257.477 144.999 257.477 144.299C257.477 143.583 257.494 142.758 257.527 141.824C257.594 140.574 257.894 139.466 258.427 138.499C258.977 137.516 259.777 136.741 260.827 136.174C261.877 135.591 263.16 135.299 264.677 135.299C266.927 135.316 268.66 135.924 269.877 137.124C271.094 138.324 271.752 139.891 271.852 141.824C271.885 142.758 271.902 143.583 271.902 144.299C271.902 144.999 271.885 145.799 271.852 146.699C271.735 148.666 271.085 150.258 269.902 151.474C268.719 152.674 266.977 153.283 264.677 153.299ZM264.677 149.674C265.494 149.674 266.102 149.408 266.502 148.874C266.919 148.324 267.144 147.558 267.177 146.574C267.21 146.091 267.227 145.316 267.227 144.249C267.227 143.183 267.21 142.424 267.177 141.974C267.144 141.024 266.927 140.274 266.527 139.724C266.127 139.174 265.51 138.891 264.677 138.874C263.86 138.891 263.244 139.174 262.827 139.724C262.427 140.274 262.21 141.024 262.177 141.974C262.16 142.424 262.152 143.183 262.152 144.249C262.152 145.316 262.16 146.091 262.177 146.574C262.26 148.641 263.094 149.674 264.677 149.674ZM281.669 153.299C279.369 153.283 277.628 152.674 276.444 151.474C275.261 150.258 274.619 148.666 274.519 146.699C274.486 145.799 274.469 144.999 274.469 144.299C274.469 143.583 274.486 142.758 274.519 141.824C274.586 140.574 274.886 139.466 275.419 138.499C275.969 137.516 276.769 136.741 277.819 136.174C278.869 135.591 280.153 135.299 281.669 135.299C283.919 135.316 285.653 135.924 286.869 137.124C288.086 138.324 288.744 139.891 288.844 141.824C288.878 142.758 288.894 143.583 288.894 144.299C288.894 144.999 288.878 145.799 288.844 146.699C288.728 148.666 288.078 150.258 286.894 151.474C285.711 152.674 283.969 153.283 281.669 153.299ZM281.669 149.674C282.486 149.674 283.094 149.408 283.494 148.874C283.911 148.324 284.136 147.558 284.169 146.574C284.203 146.091 284.219 145.316 284.219 144.249C284.219 143.183 284.203 142.424 284.169 141.974C284.136 141.024 283.919 140.274 283.519 139.724C283.119 139.174 282.503 138.891 281.669 138.874C280.853 138.891 280.236 139.174 279.819 139.724C279.419 140.274 279.203 141.024 279.169 141.974C279.153 142.424 279.144 143.183 279.144 144.249C279.144 145.316 279.153 146.091 279.169 146.574C279.253 148.641 280.086 149.674 281.669 149.674ZM298.662 153.299C296.362 153.283 294.62 152.674 293.437 151.474C292.253 150.258 291.612 148.666 291.512 146.699C291.478 145.799 291.462 144.999 291.462 144.299C291.462 143.583 291.478 142.758 291.512 141.824C291.578 140.574 291.878 139.466 292.412 138.499C292.962 137.516 293.762 136.741 294.812 136.174C295.862 135.591 297.145 135.299 298.662 135.299C300.912 135.316 302.645 135.924 303.862 137.124C305.078 138.324 305.737 139.891 305.837 141.824C305.87 142.758 305.887 143.583 305.887 144.299C305.887 144.999 305.87 145.799 305.837 146.699C305.72 148.666 305.07 150.258 303.887 151.474C302.703 152.674 300.962 153.283 298.662 153.299ZM298.662 149.674C299.478 149.674 300.087 149.408 300.487 148.874C300.903 148.324 301.128 147.558 301.162 146.574C301.195 146.091 301.212 145.316 301.212 144.249C301.212 143.183 301.195 142.424 301.162 141.974C301.128 141.024 300.912 140.274 300.512 139.724C300.112 139.174 299.495 138.891 298.662 138.874C297.845 138.891 297.228 139.174 296.812 139.724C296.412 140.274 296.195 141.024 296.162 141.974C296.145 142.424 296.137 143.183 296.137 144.249C296.137 145.316 296.145 146.091 296.162 146.574C296.245 148.641 297.078 149.674 298.662 149.674ZM313.754 152.224C313.587 152.224 313.437 152.166 313.304 152.049C313.187 151.916 313.129 151.766 313.129 151.599V147.024H308.679C308.495 147.024 308.337 146.966 308.204 146.849C308.087 146.733 308.029 146.583 308.029 146.399V144.574C308.029 144.391 308.087 144.241 308.204 144.124C308.337 143.991 308.495 143.924 308.679 143.924H313.129V139.499C313.129 139.316 313.187 139.166 313.304 139.049C313.437 138.933 313.587 138.874 313.754 138.874H315.804C315.987 138.874 316.137 138.933 316.254 139.049C316.37 139.166 316.429 139.316 316.429 139.499V143.924H320.854C321.037 143.924 321.187 143.991 321.304 144.124C321.42 144.241 321.479 144.391 321.479 144.574V146.399C321.479 146.583 321.42 146.733 321.304 146.849C321.187 146.966 321.037 147.024 320.854 147.024H316.429V151.599C316.429 151.766 316.37 151.916 316.254 152.049C316.137 152.166 315.987 152.224 315.804 152.224H313.754Z" fill="#0B132A"/>
<rect x="145" y="134.049" width="55" height="55" rx="27.5" fill="#4F65D4"/>
<path fill-rule="evenodd" clip-rule="evenodd" d="M172.5 160.349C173.455 160.349 174.371 159.97 175.046 159.295C175.721 158.62 176.1 157.704 176.1 156.749C176.1 155.795 175.721 154.879 175.046 154.204C174.371 153.529 173.455 153.149 172.5 153.149C171.545 153.149 170.63 153.529 169.955 154.204C169.279 154.879 168.9 155.795 168.9 156.749C168.9 157.704 169.279 158.62 169.955 159.295C170.63 159.97 171.545 160.349 172.5 160.349ZM167.399 171.149C165.577 171.149 164.042 169.618 164.74 167.935C165.162 166.916 165.78 165.99 166.56 165.21C167.34 164.43 168.266 163.811 169.286 163.389C170.305 162.967 171.397 162.749 172.5 162.749C173.603 162.749 174.696 162.967 175.715 163.389C176.734 163.811 177.66 164.43 178.44 165.21C179.22 165.99 179.839 166.916 180.261 167.935C180.958 169.618 179.423 171.149 177.601 171.149H167.399Z" fill="white"/>
<path d="M1017.24 186.049V171.949H1022.82C1024.34 171.949 1025.5 172.316 1026.3 173.049C1027.11 173.783 1027.52 174.829 1027.52 176.189C1027.52 177.536 1027.11 178.583 1026.3 179.329C1025.5 180.063 1024.34 180.429 1022.82 180.429H1018.88V186.049H1017.24ZM1018.88 179.049H1022.62C1024.81 179.049 1025.9 178.096 1025.9 176.189C1025.9 174.269 1024.81 173.309 1022.62 173.309H1018.88V179.049ZM1029.68 186.049V171.949H1031.3V177.929C1031.62 177.343 1032.06 176.903 1032.64 176.609C1033.22 176.303 1033.88 176.149 1034.6 176.149C1036.9 176.149 1038.06 177.429 1038.06 179.989V186.049H1036.44V180.089C1036.44 179.183 1036.26 178.523 1035.9 178.109C1035.55 177.683 1034.99 177.469 1034.22 177.469C1033.32 177.469 1032.61 177.749 1032.08 178.309C1031.56 178.856 1031.3 179.589 1031.3 180.509V186.049H1029.68ZM1044.1 186.229C1043.44 186.229 1042.84 186.103 1042.3 185.849C1041.78 185.583 1041.37 185.223 1041.06 184.769C1040.76 184.316 1040.6 183.809 1040.6 183.249C1040.6 182.543 1040.78 181.983 1041.14 181.569C1041.52 181.156 1042.12 180.863 1042.96 180.689C1043.82 180.503 1044.98 180.409 1046.44 180.409H1047.08V179.789C1047.08 178.963 1046.91 178.369 1046.56 178.009C1046.23 177.636 1045.69 177.449 1044.94 177.449C1044.36 177.449 1043.79 177.536 1043.24 177.709C1042.7 177.869 1042.14 178.136 1041.56 178.509L1041 177.329C1041.51 176.969 1042.12 176.683 1042.84 176.469C1043.58 176.256 1044.28 176.149 1044.94 176.149C1046.2 176.149 1047.12 176.456 1047.72 177.069C1048.34 177.683 1048.64 178.636 1048.64 179.929V186.049H1047.12V184.369C1046.87 184.943 1046.48 185.396 1045.94 185.729C1045.42 186.063 1044.81 186.229 1044.1 186.229ZM1044.36 185.009C1045.16 185.009 1045.82 184.736 1046.32 184.189C1046.83 183.629 1047.08 182.923 1047.08 182.069V181.469H1046.46C1045.38 181.469 1044.53 181.523 1043.9 181.629C1043.29 181.723 1042.86 181.896 1042.6 182.149C1042.36 182.389 1042.24 182.723 1042.24 183.149C1042.24 183.696 1042.43 184.143 1042.8 184.489C1043.19 184.836 1043.71 185.009 1044.36 185.009ZM1051.65 186.049V176.329H1053.23V178.069C1053.75 176.896 1054.82 176.249 1056.43 176.129L1057.01 176.069L1057.13 177.469L1056.11 177.589C1055.19 177.669 1054.49 177.963 1054.01 178.469C1053.53 178.963 1053.29 179.643 1053.29 180.509V186.049H1051.65ZM1058.86 186.049V176.329H1060.44V177.969C1060.73 177.383 1061.14 176.936 1061.66 176.629C1062.18 176.309 1062.78 176.149 1063.48 176.149C1065 176.149 1065.97 176.809 1066.4 178.129C1066.69 177.516 1067.12 177.036 1067.7 176.689C1068.27 176.329 1068.93 176.149 1069.68 176.149C1071.84 176.149 1072.92 177.429 1072.92 179.989V186.049H1071.3V180.069C1071.3 179.176 1071.14 178.523 1070.82 178.109C1070.51 177.683 1070 177.469 1069.28 177.469C1068.49 177.469 1067.86 177.749 1067.4 178.309C1066.93 178.869 1066.7 179.616 1066.7 180.549V186.049H1065.08V180.069C1065.08 179.176 1064.92 178.523 1064.6 178.109C1064.29 177.683 1063.78 177.469 1063.06 177.469C1062.26 177.469 1061.62 177.749 1061.16 178.309C1060.7 178.869 1060.48 179.616 1060.48 180.549V186.049H1058.86ZM1079.01 186.229C1078.34 186.229 1077.74 186.103 1077.21 185.849C1076.69 185.583 1076.27 185.223 1075.97 184.769C1075.66 184.316 1075.51 183.809 1075.51 183.249C1075.51 182.543 1075.69 181.983 1076.05 181.569C1076.42 181.156 1077.03 180.863 1077.87 180.689C1078.72 180.503 1079.88 180.409 1081.35 180.409H1081.99V179.789C1081.99 178.963 1081.81 178.369 1081.47 178.009C1081.13 177.636 1080.59 177.449 1079.85 177.449C1079.26 177.449 1078.69 177.536 1078.15 177.709C1077.6 177.869 1077.04 178.136 1076.47 178.509L1075.91 177.329C1076.41 176.969 1077.03 176.683 1077.75 176.469C1078.48 176.256 1079.18 176.149 1079.85 176.149C1081.1 176.149 1082.03 176.456 1082.63 177.069C1083.24 177.683 1083.55 178.636 1083.55 179.929V186.049H1082.03V184.369C1081.77 184.943 1081.38 185.396 1080.85 185.729C1080.33 186.063 1079.71 186.229 1079.01 186.229ZM1079.27 185.009C1080.07 185.009 1080.72 184.736 1081.23 184.189C1081.73 183.629 1081.99 182.923 1081.99 182.069V181.469H1081.37C1080.29 181.469 1079.43 181.523 1078.81 181.629C1078.19 181.723 1077.76 181.896 1077.51 182.149C1077.27 182.389 1077.15 182.723 1077.15 183.149C1077.15 183.696 1077.33 184.143 1077.71 184.489C1078.09 184.836 1078.61 185.009 1079.27 185.009ZM1090.67 186.229C1089.7 186.229 1088.86 186.023 1088.15 185.609C1087.44 185.183 1086.9 184.589 1086.51 183.829C1086.14 183.056 1085.95 182.156 1085.95 181.129C1085.95 179.583 1086.37 178.369 1087.21 177.489C1088.05 176.596 1089.2 176.149 1090.67 176.149C1091.27 176.149 1091.86 176.256 1092.45 176.469C1093.04 176.683 1093.52 176.983 1093.91 177.369L1093.35 178.549C1092.96 178.176 1092.54 177.903 1092.07 177.729C1091.62 177.556 1091.18 177.469 1090.77 177.469C1089.76 177.469 1088.98 177.789 1088.43 178.429C1087.88 179.056 1087.61 179.963 1087.61 181.149C1087.61 182.309 1087.88 183.229 1088.43 183.909C1088.98 184.576 1089.76 184.909 1090.77 184.909C1091.18 184.909 1091.62 184.823 1092.07 184.649C1092.54 184.476 1092.96 184.196 1093.35 183.809L1093.91 184.989C1093.52 185.376 1093.03 185.683 1092.43 185.909C1091.84 186.123 1091.26 186.229 1090.67 186.229ZM1095.61 173.909V172.089H1097.61V173.909H1095.61ZM1095.81 186.049V176.329H1097.43V186.049H1095.81ZM1104.84 186.229C1103.3 186.229 1102.09 185.783 1101.2 184.889C1100.3 183.983 1099.86 182.756 1099.86 181.209C1099.86 180.209 1100.06 179.329 1100.46 178.569C1100.86 177.796 1101.4 177.203 1102.1 176.789C1102.8 176.363 1103.62 176.149 1104.54 176.149C1105.86 176.149 1106.89 176.576 1107.64 177.429C1108.38 178.269 1108.76 179.429 1108.76 180.909V181.529H1101.44C1101.49 182.636 1101.81 183.483 1102.4 184.069C1102.98 184.643 1103.8 184.929 1104.84 184.929C1105.42 184.929 1105.98 184.843 1106.52 184.669C1107.05 184.483 1107.56 184.183 1108.04 183.769L1108.6 184.909C1108.16 185.323 1107.6 185.649 1106.92 185.889C1106.24 186.116 1105.54 186.229 1104.84 186.229ZM1104.58 177.349C1103.66 177.349 1102.93 177.636 1102.4 178.209C1101.86 178.783 1101.55 179.536 1101.46 180.469H1107.36C1107.32 179.483 1107.06 178.716 1106.58 178.169C1106.11 177.623 1105.44 177.349 1104.58 177.349ZM1114.38 186.229C1113.62 186.229 1112.9 186.123 1112.22 185.909C1111.54 185.696 1110.98 185.396 1110.54 185.009L1111.06 183.869C1111.54 184.256 1112.07 184.543 1112.64 184.729C1113.23 184.903 1113.82 184.989 1114.42 184.989C1115.18 184.989 1115.76 184.849 1116.14 184.569C1116.53 184.289 1116.72 183.909 1116.72 183.429C1116.72 183.056 1116.6 182.763 1116.34 182.549C1116.09 182.323 1115.69 182.149 1115.14 182.029L1113.32 181.629C1111.67 181.269 1110.84 180.416 1110.84 179.069C1110.84 178.189 1111.19 177.483 1111.88 176.949C1112.59 176.416 1113.51 176.149 1114.64 176.149C1115.31 176.149 1115.94 176.256 1116.54 176.469C1117.16 176.669 1117.66 176.969 1118.06 177.369L1117.52 178.509C1117.14 178.149 1116.68 177.876 1116.16 177.689C1115.66 177.489 1115.15 177.389 1114.64 177.389C1113.9 177.389 1113.33 177.536 1112.94 177.829C1112.56 178.123 1112.36 178.509 1112.36 178.989C1112.36 179.736 1112.86 180.216 1113.84 180.429L1115.66 180.809C1116.52 180.996 1117.16 181.296 1117.6 181.709C1118.04 182.109 1118.26 182.656 1118.26 183.349C1118.26 184.243 1117.91 184.949 1117.2 185.469C1116.5 185.976 1115.56 186.229 1114.38 186.229ZM1126.09 186.049V171.949H1131.73C1133.18 171.949 1134.3 172.276 1135.09 172.929C1135.89 173.569 1136.29 174.469 1136.29 175.629C1136.29 176.403 1136.09 177.063 1135.69 177.609C1135.29 178.156 1134.73 178.556 1134.03 178.809C1134.84 179.023 1135.47 179.416 1135.93 179.989C1136.39 180.563 1136.63 181.289 1136.63 182.169C1136.63 183.423 1136.22 184.383 1135.41 185.049C1134.59 185.716 1133.45 186.049 1131.97 186.049H1126.09ZM1127.69 178.249H1131.49C1133.61 178.249 1134.67 177.423 1134.67 175.769C1134.67 174.103 1133.61 173.269 1131.49 173.269H1127.69V178.249ZM1127.69 184.729H1131.81C1133.94 184.729 1135.01 183.869 1135.01 182.149C1135.01 180.429 1133.94 179.569 1131.81 179.569H1127.69V184.729ZM1142.44 186.229C1141.78 186.229 1141.18 186.103 1140.64 185.849C1140.12 185.583 1139.71 185.223 1139.4 184.769C1139.1 184.316 1138.94 183.809 1138.94 183.249C1138.94 182.543 1139.12 181.983 1139.48 181.569C1139.86 181.156 1140.46 180.863 1141.3 180.689C1142.16 180.503 1143.32 180.409 1144.78 180.409H1145.42V179.789C1145.42 178.963 1145.25 178.369 1144.9 178.009C1144.57 177.636 1144.03 177.449 1143.28 177.449C1142.7 177.449 1142.13 177.536 1141.58 177.709C1141.04 177.869 1140.48 178.136 1139.9 178.509L1139.34 177.329C1139.85 176.969 1140.46 176.683 1141.18 176.469C1141.92 176.256 1142.62 176.149 1143.28 176.149C1144.54 176.149 1145.46 176.456 1146.06 177.069C1146.68 177.683 1146.98 178.636 1146.98 179.929V186.049H1145.46V184.369C1145.21 184.943 1144.82 185.396 1144.28 185.729C1143.76 186.063 1143.15 186.229 1142.44 186.229ZM1142.7 185.009C1143.5 185.009 1144.16 184.736 1144.66 184.189C1145.17 183.629 1145.42 182.923 1145.42 182.069V181.469H1144.8C1143.72 181.469 1142.87 181.523 1142.24 181.629C1141.63 181.723 1141.2 181.896 1140.94 182.149C1140.7 182.389 1140.58 182.723 1140.58 183.149C1140.58 183.696 1140.77 184.143 1141.14 184.489C1141.53 184.836 1142.05 185.009 1142.7 185.009ZM1153.27 186.229C1152.51 186.229 1151.79 186.123 1151.11 185.909C1150.43 185.696 1149.87 185.396 1149.43 185.009L1149.95 183.869C1150.43 184.256 1150.96 184.543 1151.53 184.729C1152.12 184.903 1152.71 184.989 1153.31 184.989C1154.07 184.989 1154.64 184.849 1155.03 184.569C1155.42 184.289 1155.61 183.909 1155.61 183.429C1155.61 183.056 1155.48 182.763 1155.23 182.549C1154.98 182.323 1154.58 182.149 1154.03 182.029L1152.21 181.629C1150.56 181.269 1149.73 180.416 1149.73 179.069C1149.73 178.189 1150.08 177.483 1150.77 176.949C1151.48 176.416 1152.4 176.149 1153.53 176.149C1154.2 176.149 1154.83 176.256 1155.43 176.469C1156.04 176.669 1156.55 176.969 1156.95 177.369L1156.41 178.509C1156.02 178.149 1155.57 177.876 1155.05 177.689C1154.54 177.489 1154.04 177.389 1153.53 177.389C1152.78 177.389 1152.22 177.536 1151.83 177.829C1151.44 178.123 1151.25 178.509 1151.25 178.989C1151.25 179.736 1151.74 180.216 1152.73 180.429L1154.55 180.809C1155.4 180.996 1156.05 181.296 1156.49 181.709C1156.93 182.109 1157.15 182.656 1157.15 183.349C1157.15 184.243 1156.8 184.949 1156.09 185.469C1155.38 185.976 1154.44 186.229 1153.27 186.229ZM1164 186.229C1162.46 186.229 1161.25 185.783 1160.36 184.889C1159.46 183.983 1159.02 182.756 1159.02 181.209C1159.02 180.209 1159.22 179.329 1159.62 178.569C1160.02 177.796 1160.56 177.203 1161.26 176.789C1161.96 176.363 1162.78 176.149 1163.7 176.149C1165.02 176.149 1166.05 176.576 1166.8 177.429C1167.54 178.269 1167.92 179.429 1167.92 180.909V181.529H1160.6C1160.65 182.636 1160.97 183.483 1161.56 184.069C1162.14 184.643 1162.96 184.929 1164 184.929C1164.58 184.929 1165.14 184.843 1165.68 184.669C1166.21 184.483 1166.72 184.183 1167.2 183.769L1167.76 184.909C1167.32 185.323 1166.76 185.649 1166.08 185.889C1165.4 186.116 1164.7 186.229 1164 186.229ZM1163.74 177.349C1162.82 177.349 1162.09 177.636 1161.56 178.209C1161.02 178.783 1160.71 179.536 1160.62 180.469H1166.52C1166.48 179.483 1166.22 178.716 1165.74 178.169C1165.27 177.623 1164.6 177.349 1163.74 177.349Z" fill="#4F5665"/>
<path d="M1022.43 153.049C1022.26 153.049 1022.11 152.991 1021.98 152.874C1021.86 152.741 1021.8 152.591 1021.8 152.424V140.524L1018.38 143.149C1018.26 143.249 1018.13 143.299 1018 143.299C1017.82 143.299 1017.65 143.199 1017.5 142.999L1016.03 141.074C1015.94 140.941 1015.9 140.816 1015.9 140.699C1015.9 140.466 1016 140.291 1016.2 140.174L1021.95 135.724C1022.13 135.608 1022.33 135.549 1022.55 135.549H1025.68C1025.86 135.549 1026.01 135.608 1026.13 135.724C1026.24 135.841 1026.3 135.991 1026.3 136.174V152.424C1026.3 152.591 1026.24 152.741 1026.13 152.874C1026.01 152.991 1025.86 153.049 1025.68 153.049H1022.43ZM1029.6 153.049C1029.42 153.049 1029.26 152.991 1029.13 152.874C1029.01 152.758 1028.95 152.608 1028.95 152.424V150.649C1028.95 150.149 1029.16 149.741 1029.58 149.424L1032.18 146.874C1033.69 145.708 1034.84 144.799 1035.63 144.149C1036.41 143.499 1037 142.908 1037.4 142.374C1037.8 141.841 1038 141.333 1038 140.849C1038 139.533 1037.35 138.874 1036.05 138.874C1035.37 138.874 1034.84 139.083 1034.48 139.499C1034.11 139.899 1033.87 140.408 1033.75 141.024C1033.65 141.408 1033.37 141.599 1032.9 141.599H1029.78C1029.63 141.599 1029.5 141.549 1029.4 141.449C1029.3 141.349 1029.25 141.224 1029.25 141.074C1029.29 140.008 1029.58 139.033 1030.13 138.149C1030.69 137.249 1031.49 136.541 1032.5 136.024C1033.54 135.491 1034.72 135.224 1036.05 135.224C1037.45 135.224 1038.65 135.449 1039.65 135.899C1040.65 136.349 1041.41 136.983 1041.93 137.799C1042.44 138.616 1042.7 139.566 1042.7 140.649C1042.7 141.816 1042.34 142.883 1041.6 143.849C1040.89 144.799 1039.79 145.833 1038.3 146.949L1036 149.274H1042.43C1042.61 149.274 1042.76 149.333 1042.88 149.449C1043.01 149.566 1043.08 149.716 1043.08 149.899V152.424C1043.08 152.608 1043.01 152.758 1042.88 152.874C1042.76 152.991 1042.61 153.049 1042.43 153.049H1029.6ZM1052.66 153.299C1050.36 153.283 1048.62 152.674 1047.44 151.474C1046.25 150.258 1045.61 148.666 1045.51 146.699C1045.48 145.799 1045.46 144.999 1045.46 144.299C1045.46 143.583 1045.48 142.758 1045.51 141.824C1045.58 140.574 1045.88 139.466 1046.41 138.499C1046.96 137.516 1047.76 136.741 1048.81 136.174C1049.86 135.591 1051.14 135.299 1052.66 135.299C1054.91 135.316 1056.64 135.924 1057.86 137.124C1059.08 138.324 1059.74 139.891 1059.84 141.824C1059.87 142.758 1059.89 143.583 1059.89 144.299C1059.89 144.999 1059.87 145.799 1059.84 146.699C1059.72 148.666 1059.07 150.258 1057.89 151.474C1056.7 152.674 1054.96 153.283 1052.66 153.299ZM1052.66 149.674C1053.48 149.674 1054.09 149.408 1054.49 148.874C1054.9 148.324 1055.13 147.558 1055.16 146.574C1055.19 146.091 1055.21 145.316 1055.21 144.249C1055.21 143.183 1055.19 142.424 1055.16 141.974C1055.13 141.024 1054.91 140.274 1054.51 139.724C1054.11 139.174 1053.49 138.891 1052.66 138.874C1051.84 138.891 1051.23 139.174 1050.81 139.724C1050.41 140.274 1050.19 141.024 1050.16 141.974C1050.14 142.424 1050.14 143.183 1050.14 144.249C1050.14 145.316 1050.14 146.091 1050.16 146.574C1050.24 148.641 1051.08 149.674 1052.66 149.674ZM1069.65 153.299C1067.35 153.283 1065.61 152.674 1064.43 151.474C1063.25 150.258 1062.6 148.666 1062.5 146.699C1062.47 145.799 1062.45 144.999 1062.45 144.299C1062.45 143.583 1062.47 142.758 1062.5 141.824C1062.57 140.574 1062.87 139.466 1063.4 138.499C1063.95 137.516 1064.75 136.741 1065.8 136.174C1066.85 135.591 1068.14 135.299 1069.65 135.299C1071.9 135.316 1073.64 135.924 1074.85 137.124C1076.07 138.324 1076.73 139.891 1076.83 141.824C1076.86 142.758 1076.88 143.583 1076.88 144.299C1076.88 144.999 1076.86 145.799 1076.83 146.699C1076.71 148.666 1076.06 150.258 1074.88 151.474C1073.7 152.674 1071.95 153.283 1069.65 153.299ZM1069.65 149.674C1070.47 149.674 1071.08 149.408 1071.48 148.874C1071.9 148.324 1072.12 147.558 1072.15 146.574C1072.19 146.091 1072.2 145.316 1072.2 144.249C1072.2 143.183 1072.19 142.424 1072.15 141.974C1072.12 141.024 1071.9 140.274 1071.5 139.724C1071.1 139.174 1070.49 138.891 1069.65 138.874C1068.84 138.891 1068.22 139.174 1067.8 139.724C1067.4 140.274 1067.19 141.024 1067.15 141.974C1067.14 142.424 1067.13 143.183 1067.13 144.249C1067.13 145.316 1067.14 146.091 1067.15 146.574C1067.24 148.641 1068.07 149.674 1069.65 149.674ZM1084.75 152.224C1084.58 152.224 1084.43 152.166 1084.3 152.049C1084.18 151.916 1084.12 151.766 1084.12 151.599V147.024H1079.67C1079.49 147.024 1079.33 146.966 1079.2 146.849C1079.08 146.733 1079.02 146.583 1079.02 146.399V144.574C1079.02 144.391 1079.08 144.241 1079.2 144.124C1079.33 143.991 1079.49 143.924 1079.67 143.924H1084.12V139.499C1084.12 139.316 1084.18 139.166 1084.3 139.049C1084.43 138.933 1084.58 138.874 1084.75 138.874H1086.8C1086.98 138.874 1087.13 138.933 1087.25 139.049C1087.36 139.166 1087.42 139.316 1087.42 139.499V143.924H1091.85C1092.03 143.924 1092.18 143.991 1092.3 144.124C1092.41 144.241 1092.47 144.391 1092.47 144.574V146.399C1092.47 146.583 1092.41 146.733 1092.3 146.849C1092.18 146.966 1092.03 147.024 1091.85 147.024H1087.42V151.599C1087.42 151.766 1087.36 151.916 1087.25 152.049C1087.13 152.166 1086.98 152.224 1086.8 152.224H1084.75Z" fill="#0B132A"/>
<rect x="924" y="134.049" width="55" height="55" rx="27.5" fill="#4F65D4"/>
<path d="M959.5 152.549H943.5C942.97 152.549 942.461 152.76 942.086 153.135C941.711 153.51 941.5 154.019 941.5 154.549V158.549C941.5 159.08 941.711 159.588 942.086 159.964C942.461 160.339 942.97 160.549 943.5 160.549H959.5C960.03 160.549 960.539 160.339 960.914 159.964C961.289 159.588 961.5 159.08 961.5 158.549V154.549C961.5 154.019 961.289 153.51 960.914 153.135C960.539 152.76 960.03 152.549 959.5 152.549ZM954.5 156.549C954.5 157.102 954.052 157.549 953.5 157.549C952.948 157.549 952.5 157.102 952.5 156.549C952.5 155.997 952.948 155.549 953.5 155.549C954.052 155.549 954.5 155.997 954.5 156.549ZM958.5 156.549C958.5 157.102 958.052 157.549 957.5 157.549C956.948 157.549 956.5 157.102 956.5 156.549C956.5 155.997 956.948 155.549 957.5 155.549C958.052 155.549 958.5 155.997 958.5 156.549ZM959.5 162.549H943.5C942.97 162.549 942.461 162.76 942.086 163.135C941.711 163.51 941.5 164.019 941.5 164.549V168.549C941.5 169.08 941.711 169.588 942.086 169.964C942.461 170.339 942.97 170.549 943.5 170.549H959.5C960.03 170.549 960.539 170.339 960.914 169.964C961.289 169.588 961.5 169.08 961.5 168.549V164.549C961.5 164.019 961.289 163.51 960.914 163.135C960.539 162.76 960.03 162.549 959.5 162.549ZM954.5 166.549C954.5 167.102 954.052 167.549 953.5 167.549C952.948 167.549 952.5 167.102 952.5 166.549C952.5 165.997 952.948 165.549 953.5 165.549C954.052 165.549 954.5 165.997 954.5 166.549ZM958.5 166.549C958.5 167.102 958.052 167.549 957.5 167.549C956.948 167.549 956.5 167.102 956.5 166.549C956.5 165.997 956.948 165.549 957.5 165.549C958.052 165.549 958.5 165.997 958.5 166.549Z" fill="white"/>
<defs>
<filter id="filter0_f" x="0.579102" y="0.347656" width="1296.84" height="417.218" filterUnits="userSpaceOnUse" color-interpolation-filters="sRGB">
<feFlood flood-opacity="0" result="BackgroundImageFix"/>
<feBlend mode="normal" in="SourceGraphic" in2="BackgroundImageFix" result="shape"/>
<feGaussianBlur stdDeviation="57" result="effect1_foregroundBlur"/>
</filter>
</defs>
</svg>
